<svg id="Auto" xmlns="http://www.w3.org/2000/svg" viewBox="0 0 732.61 614.49"><defs><style>.cls-1{fill:#fff;}</style></defs><path class="cls-1" d="M370.45,147.79c-1,.13-4.54.62-7.77,1.18-21.75,3.73-38.91,18.65-44.5,38.79-1.62,5.78-1.68,23.62-.07,31.08a105.62,105.62,0,0,0,20.58,43.75c2.61,3.17,2.86,3.73,2,4.23-4.1,2.3-10.51,9-14.73,15.42-1,1.49-1,1.49-5.78.74-8.89-1.36-17.47-6-26.36-14.17-2.48-2.3-8.64-8.76-13.67-14.42-6.22-7-10.25-11-12.8-12.68-10.82-7-26.61-7-37.36,0-13,8.39-22.07,30-22.07,52.46,0,7.08,1.56,18.52,3.17,23.87,3.17,10.25,10.2,21,17.9,27.35a60.44,60.44,0,0,0,19.33,10c5.91,1.62,24.43,1.56,31.39-.06,16.72-3.85,31.64-10.88,43.39-20.51a20.31,20.31,0,0,1,3.79-2.73c3,4.91,9.7,11.5,14.86,14.73,1.74,1.05,2.29,1.8,2.29,3-.06,3.55-1.92,10.57-4,14.8-4.35,8.89-10.07,15.41-25.11,28.78-7,6.15-11,10.19-12.62,12.74A35.56,35.56,0,0,0,297.67,432c2.61,12.18,9.32,19.77,23.49,26.48,19.89,9.45,47,9.57,66.07.31,14.42-7,24.24-18.27,28.4-32.75,1.25-4.23,1.43-6.28,1.43-16,0-8.7-.25-12.31-1.18-16.16C412,377.09,405,362.17,395.37,350.42a20.31,20.31,0,0,1-2.73-3.79c.12-.06,2.3-1.86,4.85-3.91a47.05,47.05,0,0,0,10.25-11.56c1.24-2,2.43-2.06,8.7-.75,11.69,2.49,20.7,9.26,37.55,28.22,6.15,7,10.19,10.94,12.74,12.62,10.81,7,26.6,7,37.35,0,12.93-8.4,22.07-30.09,22.07-52.34,0-21.76-7.58-40.22-21.07-51.34a59.75,59.75,0,0,0-19-9.95c-5.72-1.56-20.95-1.86-28.28-.62-17.16,3-35.06,11.06-47.12,21.32a18.42,18.42,0,0,1-3.42,2.61,53.51,53.51,0,0,0-14.91-14.79c-2.68-1.62-2.8-2.42-1.37-9.08,2.49-11.68,9.26-20.7,28.22-37.54,7-6.15,10.94-10.19,12.61-12.74,7-10.82,7-26.61,0-37.36-8.57-13.24-30.64-22.31-53.27-22C375.11,147.48,371.51,147.67,370.45,147.79Zm6.15,122a34.87,34.87,0,0,1,16.91,9.64,35.94,35.94,0,0,1,10.26,17.77c6,23.81-12.12,47.12-36.8,47.18a37.91,37.91,0,1,1,9.63-74.59Z"/><path class="cls-1" d="M362.68,285.59a19.36,19.36,0,0,0-10.38,5.53c-12.74,11.75-6,33.69,11.25,36.36a21.33,21.33,0,0,0,7-42.08,34.25,34.25,0,0,0-4-.62C366.29,284.78,364.54,285.16,362.68,285.59Z"/><path class="cls-1" d="M557.05,348.11a13.66,13.66,0,0,1,4-9.64L615.52,284a13.62,13.62,0,0,1,19.26,0l54.5,54.49A13.62,13.62,0,0,1,670,357.73l-44.85-44.85-44.84,44.85a13.68,13.68,0,0,1-19.27,0A13.48,13.48,0,0,1,557.05,348.11Z"/><path class="cls-1" d="M39.37,266.37a13.61,13.61,0,0,1,23.24-9.64l44.85,44.85,44.82-44.85A13.62,13.62,0,0,1,171.54,276l-54.49,54.49a13.68,13.68,0,0,1-19.27,0L43.29,276A13.74,13.74,0,0,1,39.37,266.37Z"/><path class="cls-1" d="M93.86,307.24C93.86,157,216.09,34.78,366.32,34.78c122.42,0,230.4,82.53,262.63,200.75a13.61,13.61,0,1,1-26.26,7.14C573.67,136.33,476.48,62,366.32,62,231.1,62,121.11,172,121.11,307.24a13.63,13.63,0,1,1-27.25,0Z"/><path class="cls-1" d="M103.23,375.36A13.62,13.62,0,0,1,130,371.82c29,106.34,126.18,180.64,236.33,180.64,135.23,0,245.22-110,245.22-245.22a13.63,13.63,0,0,1,27.25,0c0,150.24-122.23,272.47-272.47,272.47-122.41,0-230.39-82.53-262.62-200.75A15,15,0,0,1,103.23,375.36Z"/></svg>