<svg id="Auto_Circle_White_" data-name="Auto Circle (White)" xmlns="http://www.w3.org/2000/svg" viewBox="0 0 732.61 614.49"><defs><style>.cls-1{fill:#fff;}</style></defs><path class="cls-1" d="M557.05,348.11a13.66,13.66,0,0,1,4-9.64L615.52,284a13.62,13.62,0,0,1,19.26,0l54.5,54.49A13.62,13.62,0,0,1,670,357.73l-44.85-44.85-44.84,44.85a13.68,13.68,0,0,1-19.27,0A13.48,13.48,0,0,1,557.05,348.11Z"/><path class="cls-1" d="M39.37,266.37a13.61,13.61,0,0,1,23.24-9.64l44.85,44.85,44.82-44.85A13.62,13.62,0,0,1,171.54,276l-54.49,54.49a13.68,13.68,0,0,1-19.27,0L43.29,276A13.74,13.74,0,0,1,39.37,266.37Z"/><path class="cls-1" d="M93.86,307.24C93.86,157,216.09,34.78,366.32,34.78c122.42,0,230.4,82.53,262.63,200.75a13.61,13.61,0,1,1-26.26,7.14C573.67,136.33,476.48,62,366.32,62,231.1,62,121.11,172,121.11,307.24a13.63,13.63,0,1,1-27.25,0Z"/><path class="cls-1" d="M103.23,375.36A13.62,13.62,0,0,1,130,371.82c29,106.34,126.18,180.64,236.33,180.64,135.23,0,245.22-110,245.22-245.22a13.63,13.63,0,0,1,27.25,0c0,150.24-122.23,272.47-272.47,272.47-122.41,0-230.39-82.53-262.62-200.75A15,15,0,0,1,103.23,375.36Z"/></svg>