<?xml version="1.0" encoding="UTF-8" standalone="no"?>
<svg
   xmlns:dc="http://purl.org/dc/elements/1.1/"
   xmlns:cc="http://creativecommons.org/ns#"
   xmlns:rdf="http://www.w3.org/1999/02/22-rdf-syntax-ns#"
   xmlns:svg="http://www.w3.org/2000/svg"
   xmlns="http://www.w3.org/2000/svg"
   xmlns:sodipodi="http://sodipodi.sourceforge.net/DTD/sodipodi-0.dtd"
   xmlns:inkscape="http://www.inkscape.org/namespaces/inkscape"
   id="Layer_1"
   data-name="Layer 1"
   viewBox="0 0 182 182.17066"
   version="1.1"
   sodipodi:docname="heat.svg"
   width="182"
   height="182.17065"
   inkscape:version="0.92.2 5c3e80d, 2017-08-06">
  <metadata
     id="metadata19">
    <rdf:RDF>
      <cc:Work
         rdf:about="">
        <dc:format>image/svg+xml</dc:format>
        <dc:type
           rdf:resource="http://purl.org/dc/dcmitype/StillImage" />
        <dc:title>heatcoloured</dc:title>
      </cc:Work>
    </rdf:RDF>
  </metadata>
  <sodipodi:namedview
     pagecolor="#ffffff"
     bordercolor="#666666"
     borderopacity="1"
     objecttolerance="10"
     gridtolerance="10"
     guidetolerance="10"
     inkscape:pageopacity="0"
     inkscape:pageshadow="2"
     inkscape:window-width="781"
     inkscape:window-height="480"
     id="namedview17"
     showgrid="false"
     fit-margin-left="16"
     fit-margin-right="16"
     fit-margin-top="0"
     fit-margin-bottom="0"
     inkscape:zoom="1.2954932"
     inkscape:cx="91"
     inkscape:cy="91.085001"
     inkscape:window-x="813"
     inkscape:window-y="116"
     inkscape:window-maximized="0"
     inkscape:current-layer="Layer_1" />
  <defs
     id="defs4">
    <style
       id="style2">.cls-1{fill:none;}.cls-2{fill:#FFFFFF;}</style>
  </defs>
  <title
     id="title6">heatcoloured</title>
  <path
     class="cls-1"
     d="m 106,0.17065744 h 60 V 182.17066 H 16 Q 16,91.170657 16,0.17065744 h 86 C 100.14,1.4706574 98.34,2.8606574 96.43,4.0706574 73.55,18.480657 62.03,38.980657 62.73,66.220657 c 0.33,12.83 4,24.87 7.64,37.000003 7.13,23.72 10.9,47.68 4.22,72.25 -0.34,1.25 0,3.82 0.56,4 a 7.37,7.37 0 0 0 5.08,-0.22 c 22.55,-12.22 36.75,-30.27 38.83,-56.56 1.16,-14.54 -2,-28.410003 -6.4,-42.150003 -7.75,-24.25 -11.71,-48.83 -5.7,-74.1899996 0.43,-1.9 -0.63,-4.12 -0.96,-6.17999996 z M 132.67,155.07066 c 2.51,-0.75 4.13,-0.94 5.45,-1.68 11.07,-6.23 19.58,-14.77 24,-27 5.14,-14.23 2.88,-28.190003 -1.53,-42.050003 -5.62,-17.66 -8.73,-35.5 -4.47,-54 a 5,5 0 0 0 -1,-3.91 c -0.46,-0.5 -2.52,0 -3.57,0.56 -13.16,7.21 -22.39,17.57 -25.73,32.56 -2.93,13.14 -0.35,25.73 3.67,38.22 4.36,13.560003 6.92,27.420003 5.55,41.730003 -0.45,4.8 -1.42,9.5 -2.37,15.57 z m -74.34,-46.66 c -1.79,-8.08 -3.08,-16.300003 -5.46,-24.200003 -5.36,-17.76 -8.52,-35.56 -4.16,-54 0.26,-1.09 -0.11,-2.94 -0.88,-3.51 -0.77,-0.57 -2.6,-0.34 -3.6,0.21 -13.68,7.43 -23.09,18.24 -26.28,33.87 -2.7,13.22 0.46,25.74 4.31,38.23 5.05,16.410003 7.78,33.000003 3.77,50.140003 -0.37,1.59 0,3.36 0,5.05 1.7,-0.36 3.64,-0.31 5.07,-1.14 16.99,-9.92 26.43,-24.36 27.23,-44.65 z"
     id="path8"
     inkscape:connector-curvature="0"
     style="fill:none" />
  <path
     class="cls-2"
     d="m 106,2.1706574 c 0.81,1 1.4,4.28 1,6.15 -6,25.3599996 -2.05,49.9399996 5.7,74.1899996 4.39,13.73 7.56,27.610003 6.4,42.150003 -2.09,26.28 -16.28,44.34 -38.83,56.56 a 7.37,7.37 0 0 1 -5.08,0.22 c -0.55,-0.16 -0.9,-2.72 -0.56,-4 6.67,-24.57 2.91,-48.53 -4.22,-72.25 -3.64,-12.120003 -7.31,-24.170003 -7.64,-37.000003 -0.7,-27.24 10.83,-47.74 33.7,-62.1499996 1.86,-1.2 8.71,-4.87 9.53,-3.87 z"
     id="path10"
     inkscape:connector-curvature="0"
     style="fill:#ffffff" />
  <path
     class="cls-2"
     d="m 132.67,157.07066 c 0.95,-6.07 1.92,-10.77 2.38,-15.53 1.37,-14.32 -1.19,-28.17 -5.55,-41.730003 -4,-12.49 -6.6,-25.08 -3.67,-38.22 3.35,-15 12.57,-25.35 25.73,-32.56 1,-0.57 3.11,-1.06 3.57,-0.56 a 5,5 0 0 1 1,3.91 c -4.26,18.49 -1.14,36.33 4.47,54 4.41,13.860003 6.67,27.820003 1.53,42.050003 -4.4,12.19 -12.92,20.73 -24,27 -1.33,0.7 -2.95,0.89 -5.46,1.64 z"
     id="path12"
     inkscape:connector-curvature="0"
     style="fill:#ffffff" />
  <path
     class="cls-2"
     d="m 24.67,157.07066 c 0.95,-6.07 1.92,-10.77 2.38,-15.53 1.37,-14.32 -1.19,-28.17 -5.55,-41.730003 -4,-12.49 -6.6,-25.08 -3.67,-38.22 3.35,-15 12.57,-25.35 25.73,-32.56 1,-0.57 3.11,-1.06 3.57,-0.56 a 5,5 0 0 1 1,3.91 c -4.26,18.49 -1.14,36.33 4.47,54 4.41,13.860003 6.67,27.820003 1.53,42.050003 -4.4,12.19 -12.92,20.73 -24,27 -1.33,0.7 -2.95,0.89 -5.46,1.64 z"
     id="path14"
     inkscape:connector-curvature="0"
     style="fill:#ffffff" />
</svg>
