<svg id="Medium" xmlns="http://www.w3.org/2000/svg" viewBox="0 0 732.61 614.49"><defs><style>.cls-1{fill:#fff;}</style></defs><path class="cls-1" d="M235.34,81.56c-1.42.17-6.46.88-11.07,1.68-31,5.31-55.39,26.54-63.35,55.22-2.3,8.22-2.39,33.62-.09,44.24,5,23.09,15.4,45.21,29.29,62.29,3.72,4.51,4.07,5.31,2.83,6-5.83,3.27-14.95,12.83-21,21.94-1.41,2.12-1.41,2.12-8.22,1.07-12.66-1.95-24.87-8.5-37.52-20.18-3.54-3.27-12.3-12.48-19.47-20.53-8.85-10-14.6-15.66-18.23-18.05-15.39-9.91-37.87-9.91-53.18,0C16.87,227.2,4,258,4,289.94c0,10.08,2.21,26.37,4.51,34C13,338.51,23,353.82,33.94,362.85c6.73,5.57,19.11,12,27.52,14.25s34.77,2.21,44.69-.09c23.8-5.49,45-15.49,61.76-29.2,2.83-2.3,5.3-4.07,5.4-3.89,4.25,7,13.8,16.37,21.15,21,2.47,1.5,3.27,2.56,3.27,4.33-.09,5-2.74,15-5.75,21.06-6.2,12.66-14.34,22-35.75,41-9.91,8.76-15.66,14.51-18,18.14a50.62,50.62,0,0,0-6.55,36.72c3.72,17.34,13.27,28.14,33.45,37.7,28.31,13.44,67,13.62,94.05.44,20.53-9.91,34.51-26,40.44-46.63,1.77-6,2-8.94,2-22.83,0-12.39-.35-17.52-1.68-23-5.49-23.8-15.49-45-29.2-61.76-2.3-2.83-4.07-5.3-3.89-5.4s3.27-2.65,6.9-5.57a66.41,66.41,0,0,0,14.6-16.46c1.77-2.83,3.45-2.92,12.39-1.06,16.63,3.54,29.47,13.18,53.44,40.17,8.76,9.91,14.52,15.57,18.14,18,15.4,9.92,37.87,9.92,53.18,0C444,387.71,457,356.83,457,325.15c0-31-10.8-57.25-30-73.08-6.55-5.49-19-12-27.08-14.16s-29.81-2.66-40.26-.89c-24.42,4.25-49.9,15.75-67.07,30.35-2.56,2.22-4.78,3.9-4.87,3.72-5.13-7.88-13.8-16.46-21.23-21.06-3.81-2.3-4-3.45-2-12.92,3.54-16.63,13.18-29.46,40.17-53.44,9.91-8.76,15.58-14.51,18-18.14,9.91-15.4,9.91-37.87,0-53.18C310.45,93.5,279,80.58,246.83,81,242,81.11,236.84,81.38,235.34,81.56Zm8.76,173.69A49.62,49.62,0,0,1,268.16,269a51.11,51.11,0,0,1,14.6,25.3c8.59,33.89-17.25,67.08-52.38,67.16-29.64.09-53.8-24.15-53.89-54.06a54,54,0,0,1,67.61-52.12Z"/><path class="cls-1" d="M224.27,277.73c-6.19,1.32-9.82,3.27-14.78,7.87-18.13,16.73-8.49,48,16,51.76a30.31,30.31,0,0,0,34.86-34.86c-1.94-12.65-11.94-22.65-25-25a44.92,44.92,0,0,0-5.75-.88C229.41,276.58,226.93,277.11,224.27,277.73Z"/><path class="cls-1" d="M630.39,326.14a9.87,9.87,0,0,1,14,0l80.37,80.32a9.88,9.88,0,0,1,0,14L644.4,500.85a9.89,9.89,0,0,1-14,0l-9.18-9.18a9.93,9.93,0,0,1,.17-14.18L671.19,430H552.38a9.91,9.91,0,0,1-9.93-9.92V406.88a9.91,9.91,0,0,1,9.93-9.93H671.19l-49.81-47.46a9.85,9.85,0,0,1-.17-14.18Z"/><path class="cls-1" d="M630.39,114.18a9.87,9.87,0,0,1,14,0l80.37,80.33a9.87,9.87,0,0,1,0,14L644.4,288.89a9.87,9.87,0,0,1-14,0l-9.18-9.18a9.93,9.93,0,0,1,.17-14.18l49.81-47.46H552.38a9.9,9.9,0,0,1-9.93-9.92V194.92a9.9,9.9,0,0,1,9.93-9.92H671.19l-49.81-47.46a9.85,9.85,0,0,1-.17-14.18Z"/></svg>