<svg xmlns="http://www.w3.org/2000/svg" xmlns:xlink="http://www.w3.org/1999/xlink" width="500" zoomAndPan="magnify" viewBox="0 0 375 374.999991" height="500" preserveAspectRatio="xMidYMid meet" version="1.0"><defs><g/><clipPath id="cebadb3cc2"><path d="M 118.816406 93.109375 L 259.96875 93.109375 L 259.96875 206.867188 L 118.816406 206.867188 Z M 118.816406 93.109375 " clip-rule="nonzero"/></clipPath><clipPath id="175e038619"><path d="M 115.21875 214 L 173 214 L 173 243 L 115.21875 243 Z M 115.21875 214 " clip-rule="nonzero"/></clipPath></defs><rect x="-37.5" width="450" fill="#ffffff" y="-37.499999" height="449.999989" fill-opacity="1"/><rect x="-37.5" width="450" fill="#ffffff" y="-37.499999" height="449.999989" fill-opacity="1"/><rect x="-37.5" width="450" fill="#ffffff" y="-37.499999" height="449.999989" fill-opacity="1"/><g clip-path="url(#cebadb3cc2)"><path fill="#3c7ff2" d="M 196.226562 131.820312 C 196.226562 131.820312 196.117188 131.574219 195.902344 131.089844 C 195.707031 130.589844 195.324219 129.921875 194.996094 128.914062 C 194.246094 126.898438 193.492188 123.84375 193.535156 119.792969 C 193.625 115.785156 194.726562 110.722656 197.933594 105.855469 C 199.511719 103.421875 201.601562 101.039062 204.265625 99.054688 C 206.863281 97.082031 210.214844 95.417969 213.484375 94.449219 C 220.605469 92.246094 228.976562 92.691406 236.6875 96.269531 C 244.433594 99.804688 250.8125 106.460938 255.109375 114.335938 C 259.421875 122.726562 260.65625 132.125 259.65625 141.398438 C 258.621094 150.667969 255.105469 159.648438 250.027344 167.414062 C 244.914062 175.195312 238.179688 181.691406 230.835938 186.792969 C 223.464844 191.882812 215.515625 195.640625 207.609375 198.390625 C 191.761719 203.9375 176.253906 205.777344 163.109375 206.421875 C 149.929688 207.042969 138.976562 206.503906 131.34375 205.949219 C 127.527344 205.640625 124.535156 205.382812 122.5 205.15625 C 120.460938 204.949219 119.375 204.839844 119.375 204.839844 C 119.125 204.8125 118.945312 204.589844 118.96875 204.339844 C 118.992188 204.101562 119.210938 203.925781 119.445312 203.933594 C 119.445312 203.933594 120.535156 203.972656 122.574219 204.050781 C 124.617188 204.144531 127.609375 204.210938 131.417969 204.273438 C 139.023438 204.328125 149.921875 204.316406 162.84375 202.972656 C 169.300781 202.296875 176.261719 201.300781 183.484375 199.722656 C 190.710938 198.195312 198.21875 196.097656 205.632812 193.132812 C 213.042969 190.191406 220.339844 186.324219 226.898438 181.363281 C 233.445312 176.40625 239.183594 170.277344 243.296875 163.238281 C 247.425781 156.214844 249.769531 148.308594 250.378906 140.496094 C 250.988281 132.746094 249.96875 124.777344 247.082031 118.445312 C 243.941406 111.8125 238.929688 106.414062 233.167969 103.332031 C 227.441406 100.152344 220.78125 99.53125 215.285156 100.683594 C 212.226562 101.355469 209.796875 102.316406 207.476562 103.710938 C 205.191406 105.0625 203.257812 106.773438 201.730469 108.636719 C 198.648438 112.359375 196.984375 116.519531 196.445312 120.066406 C 195.832031 123.617188 196.097656 126.574219 196.40625 128.480469 C 196.53125 129.464844 196.800781 130.238281 196.898438 130.75 C 197.023438 131.265625 197.089844 131.53125 197.089844 131.53125 C 197.148438 131.773438 196.996094 132.023438 196.75 132.082031 C 196.535156 132.132812 196.316406 132.019531 196.226562 131.820312 " fill-opacity="1" fill-rule="nonzero"/></g><path fill="#3c7ff2" d="M 203.601562 141.949219 C 203.601562 141.949219 203.207031 141.4375 202.550781 140.378906 C 201.875 139.277344 201.105469 137.558594 200.691406 135.171875 C 200.289062 132.8125 200.339844 129.703125 201.6875 126.484375 C 202.914062 123.261719 205.757812 119.957031 209.554688 118.03125 C 213.496094 115.9375 218.46875 115.257812 223.40625 116.5 C 228.355469 117.707031 232.878906 120.914062 236.257812 125.054688 C 239.746094 129.53125 241.53125 134.90625 241.96875 140.476562 C 242.429688 146.050781 241.339844 151.710938 239.25 156.863281 C 237.078125 161.992188 233.878906 166.582031 230.136719 170.414062 C 226.367188 174.226562 222.121094 177.347656 217.769531 179.835938 C 213.410156 182.316406 209.007812 184.304688 204.738281 185.882812 C 202.601562 186.667969 200.484375 187.308594 198.449219 187.953125 C 196.386719 188.496094 194.410156 189.078125 192.488281 189.53125 C 190.5625 189.953125 188.714844 190.363281 186.960938 190.75 C 185.191406 191.0625 183.515625 191.363281 181.941406 191.640625 C 178.785156 192.167969 176.019531 192.488281 173.75 192.808594 C 169.191406 193.261719 166.585938 193.519531 166.585938 193.519531 C 166.4375 193.535156 166.304688 193.425781 166.289062 193.277344 C 166.273438 193.132812 166.386719 193.003906 166.527344 192.980469 C 166.527344 192.980469 169.101562 192.574219 173.609375 191.863281 C 175.847656 191.414062 178.574219 190.9375 181.667969 190.238281 C 183.207031 189.871094 184.847656 189.480469 186.574219 189.070312 C 188.285156 188.589844 190.078125 188.085938 191.953125 187.558594 C 193.816406 187.007812 195.722656 186.320312 197.707031 185.671875 C 199.664062 184.9375 201.683594 184.175781 203.726562 183.320312 C 207.808594 181.605469 211.96875 179.503906 216.015625 176.960938 C 220.054688 174.417969 223.902344 171.304688 227.210938 167.660156 C 230.5 164.003906 233.152344 159.742188 234.824219 155.160156 C 235.597656 152.847656 236.171875 150.484375 236.433594 148.097656 C 236.660156 145.707031 236.691406 143.320312 236.457031 140.980469 C 235.882812 136.363281 234.417969 131.78125 232.015625 128.398438 C 229.421875 124.808594 225.867188 122.226562 222.132812 121.050781 C 218.40625 119.820312 214.417969 120.203125 211.3125 121.496094 C 208 122.890625 205.628906 125.125 204.230469 127.695312 C 202.847656 130.230469 202.308594 132.859375 202.382812 135.011719 C 202.4375 137.171875 202.9375 138.875 203.332031 139.964844 C 203.769531 141.089844 204.074219 141.683594 204.074219 141.683594 C 204.144531 141.816406 204.089844 141.980469 203.957031 142.046875 C 203.839844 142.109375 203.695312 142.074219 203.617188 141.972656 L 203.601562 141.949219 " fill-opacity="1" fill-rule="nonzero"/><path fill="#3c7ff2" d="M 160.238281 157.148438 C 160.238281 157.148438 160.03125 156.703125 159.726562 155.8125 C 159.414062 154.886719 159.132812 153.492188 159.226562 151.664062 C 159.328125 149.859375 159.875 147.566406 161.421875 145.429688 C 162.882812 143.277344 165.515625 141.316406 168.628906 140.511719 C 171.882812 139.605469 175.667969 139.945312 179.101562 141.679688 C 182.546875 143.398438 185.347656 146.519531 187.144531 150.132812 C 188.921875 154.023438 189.394531 158.273438 188.777344 162.457031 C 188.1875 166.644531 186.4375 170.636719 184.035156 174.089844 C 181.578125 177.507812 178.449219 180.359375 175.050781 182.5625 C 171.632812 184.746094 167.980469 186.335938 164.355469 187.449219 C 160.726562 188.550781 157.148438 189.285156 153.734375 189.734375 C 150.316406 190.164062 147.074219 190.332031 144.089844 190.382812 C 142.597656 190.375 141.167969 190.367188 139.808594 190.359375 C 138.453125 190.296875 137.167969 190.238281 135.957031 190.179688 C 133.542969 190.042969 131.449219 189.816406 129.722656 189.675781 C 126.285156 189.25 124.320312 189.007812 124.320312 189.007812 C 124.207031 188.992188 124.128906 188.890625 124.144531 188.777344 C 124.15625 188.667969 124.261719 188.589844 124.367188 188.597656 C 124.367188 188.597656 126.335938 188.726562 129.777344 188.953125 C 131.503906 188.996094 133.59375 189.101562 135.992188 189.101562 C 137.1875 189.085938 138.464844 189.074219 139.804688 189.058594 C 141.144531 188.988281 142.554688 188.914062 144.023438 188.839844 C 146.957031 188.625 150.117188 188.261719 153.414062 187.675781 C 156.710938 187.09375 160.132812 186.234375 163.539062 185.035156 C 166.945312 183.832031 170.304688 182.179688 173.351562 180.042969 C 176.386719 177.898438 179.054688 175.195312 181.054688 172.09375 C 183.023438 168.964844 184.191406 165.4375 184.628906 161.914062 C 184.96875 158.414062 184.714844 154.773438 183.460938 151.890625 C 182.144531 148.8125 179.957031 146.3125 177.398438 144.824219 C 174.855469 143.292969 171.855469 142.921875 169.34375 143.339844 C 166.660156 143.796875 164.519531 145.050781 163.078125 146.734375 C 161.648438 148.382812 160.800781 150.226562 160.503906 151.828125 C 160.179688 153.429688 160.265625 154.769531 160.371094 155.640625 C 160.507812 156.539062 160.632812 157.03125 160.632812 157.03125 C 160.660156 157.140625 160.59375 157.25 160.484375 157.277344 C 160.386719 157.304688 160.289062 157.253906 160.25 157.167969 L 160.238281 157.148438 " fill-opacity="1" fill-rule="nonzero"/><g clip-path="url(#175e038619)"><path fill="#3c7ff2" d="M 152.921875 234.875 C 152.921875 234.875 153.019531 235.214844 153.253906 235.824219 C 153.496094 236.417969 153.945312 237.265625 154.722656 238.132812 C 155.476562 239.015625 156.636719 239.875 158.105469 240.359375 C 159.585938 240.871094 161.285156 240.898438 163.105469 240.257812 C 164.777344 239.707031 166.570312 238.480469 167.664062 236.808594 C 168.78125 235.15625 169.1875 232.984375 168.765625 230.9375 C 168.234375 228.558594 167.152344 226.730469 165.390625 225.25 C 163.621094 223.816406 161.300781 222.785156 158.828125 222.003906 C 156.332031 221.253906 153.703125 220.730469 151.078125 220.265625 C 148.449219 219.816406 145.808594 219.542969 143.253906 219.214844 C 140.675781 218.949219 138.1875 218.6875 135.824219 218.441406 C 133.449219 218.210938 131.199219 217.992188 129.125 217.789062 C 124.964844 217.378906 121.488281 217.007812 119.050781 216.679688 C 116.613281 216.378906 115.21875 216.144531 115.21875 216.144531 C 115.21875 216.144531 120.789062 215.210938 129.199219 214.804688 C 131.304688 214.675781 133.582031 214.648438 136.003906 214.621094 C 138.421875 214.566406 140.972656 214.679688 143.621094 214.796875 C 146.277344 214.902344 149.011719 215.195312 151.808594 215.589844 C 154.609375 215.976562 157.457031 216.582031 160.28125 217.523438 C 163.089844 218.460938 165.96875 219.777344 168.308594 222.019531 C 169.472656 223.121094 170.46875 224.449219 171.160156 225.886719 C 171.507812 226.609375 171.75 227.347656 171.960938 228.101562 L 172.222656 229.28125 L 172.351562 230.257812 C 172.785156 233.371094 171.925781 236.484375 170.105469 238.632812 C 168.304688 240.796875 166.007812 242.050781 163.652344 242.574219 C 161.433594 243.066406 159.101562 242.675781 157.484375 241.800781 C 155.828125 240.925781 154.726562 239.707031 154.070312 238.609375 C 153.417969 237.5 153.167969 236.53125 153.046875 235.875 C 152.945312 235.226562 152.921875 234.875 152.921875 234.875 " fill-opacity="1" fill-rule="nonzero"/></g><g fill="#000000" fill-opacity="1"><g transform="translate(108.492185, 273.749982)"><g><path d="M 8.535156 -10.386719 C 11.394531 -9.707031 13.339844 -8.957031 14.378906 -8.113281 C 15.09375 -7.53125 15.449219 -6.785156 15.449219 -5.875 C 15.449219 -4.964844 15.257812 -4.21875 14.867188 -3.699219 C 13.894531 -2.335938 12.140625 -1.65625 9.671875 -1.65625 C 6.230469 -1.65625 4.285156 -2.824219 3.863281 -5.160156 L 1.199219 -5.160156 C 1.980469 -1.429688 4.804688 0.421875 9.671875 0.421875 C 11.847656 0.421875 13.664062 -0.03125 15.125 -1.007812 C 16.878906 -2.140625 17.789062 -3.832031 17.789062 -6.039062 C 17.789062 -7.855469 17.074219 -9.25 15.644531 -10.226562 C 14.640625 -10.9375 13.015625 -11.589844 10.777344 -12.171875 C 8.503906 -12.757812 7.042969 -13.242188 6.363281 -13.601562 C 4.867188 -14.347656 4.121094 -15.386719 4.15625 -16.75 C 4.15625 -17.464844 4.285156 -18.082031 4.609375 -18.535156 C 5.453125 -19.800781 6.945312 -20.449219 9.089844 -20.449219 C 12.109375 -20.449219 13.828125 -19.476562 14.28125 -17.59375 L 16.75 -17.59375 C 15.9375 -20.773438 13.375 -22.398438 9.089844 -22.398438 C 7.140625 -22.398438 5.421875 -21.878906 3.992188 -20.839844 C 2.53125 -19.800781 1.785156 -18.273438 1.785156 -16.199219 C 1.785156 -13.375 4.058594 -11.425781 8.535156 -10.386719 Z M 8.535156 -10.386719 "/></g></g></g><g fill="#000000" fill-opacity="1"><g transform="translate(127.118015, 273.749982)"><g><path d="M 16.390625 -7.464844 C 16.390625 -9.414062 15.613281 -11.101562 14.121094 -12.5625 C 12.660156 -13.957031 10.90625 -14.671875 8.925781 -14.671875 C 6.847656 -14.671875 5.097656 -13.925781 3.636719 -12.464844 C 2.175781 -11.003906 1.460938 -9.25 1.460938 -7.207031 C 1.460938 -5.128906 2.175781 -3.375 3.636719 -1.949219 C 4.316406 -1.265625 5.097656 -0.746094 6.003906 -0.355469 C 6.914062 0.03125 7.984375 0.226562 9.25 0.226562 C 10.515625 0.226562 11.75 -0.164062 12.984375 -0.941406 C 14.21875 -1.71875 15.125 -2.824219 15.742188 -4.1875 L 13.144531 -4.1875 C 12.625 -3.503906 12.011719 -2.984375 11.261719 -2.597656 C 10.515625 -2.207031 9.738281 -2.046875 8.925781 -2.046875 C 7.691406 -2.046875 6.589844 -2.433594 5.617188 -3.246094 C 4.640625 -4.023438 4.023438 -5.03125 3.832031 -6.265625 L 16.390625 -6.265625 Z M 13.992188 -8.210938 L 3.863281 -8.210938 C 3.992188 -8.796875 4.21875 -9.347656 4.542969 -9.867188 C 5.582031 -11.554688 7.042969 -12.398438 8.925781 -12.398438 C 10.128906 -12.398438 11.199219 -12.011719 12.140625 -11.230469 C 13.113281 -10.417969 13.699219 -9.414062 13.992188 -8.210938 Z M 13.992188 -8.210938 "/></g></g></g><g fill="#000000" fill-opacity="1"><g transform="translate(144.80282, 273.749982)"><g><path d="M 9.769531 -11.328125 L 9.769531 -14.28125 C 9.316406 -14.476562 8.828125 -14.574219 8.34375 -14.574219 C 6.71875 -14.574219 5.550781 -13.664062 4.804688 -11.914062 L 4.707031 -11.328125 L 4.707031 -14.28125 L 2.433594 -14.28125 L 2.433594 0 L 4.707031 0 L 4.707031 -7.140625 C 4.707031 -8.308594 4.964844 -9.347656 5.519531 -10.289062 C 5.777344 -10.777344 6.136719 -11.199219 6.558594 -11.523438 C 6.980469 -11.847656 7.5 -12.042969 8.082031 -12.042969 C 8.667969 -12.042969 9.21875 -11.78125 9.769531 -11.328125 Z M 9.769531 -11.328125 "/></g></g></g><g fill="#000000" fill-opacity="1"><g transform="translate(154.894518, 273.749982)"><g><path d="M 6.914062 1.363281 L 13.472656 -14.28125 L 11.003906 -14.28125 L 6.914062 -3.667969 L 2.792969 -14.28125 L 0.324219 -14.28125 Z M 6.914062 1.363281 "/></g></g></g><g fill="#000000" fill-opacity="1"><g transform="translate(168.685425, 273.749982)"><g><path d="M 16.390625 -7.464844 C 16.390625 -9.414062 15.613281 -11.101562 14.121094 -12.5625 C 12.660156 -13.957031 10.90625 -14.671875 8.925781 -14.671875 C 6.847656 -14.671875 5.097656 -13.925781 3.636719 -12.464844 C 2.175781 -11.003906 1.460938 -9.25 1.460938 -7.207031 C 1.460938 -5.128906 2.175781 -3.375 3.636719 -1.949219 C 4.316406 -1.265625 5.097656 -0.746094 6.003906 -0.355469 C 6.914062 0.03125 7.984375 0.226562 9.25 0.226562 C 10.515625 0.226562 11.75 -0.164062 12.984375 -0.941406 C 14.21875 -1.71875 15.125 -2.824219 15.742188 -4.1875 L 13.144531 -4.1875 C 12.625 -3.503906 12.011719 -2.984375 11.261719 -2.597656 C 10.515625 -2.207031 9.738281 -2.046875 8.925781 -2.046875 C 7.691406 -2.046875 6.589844 -2.433594 5.617188 -3.246094 C 4.640625 -4.023438 4.023438 -5.03125 3.832031 -6.265625 L 16.390625 -6.265625 Z M 13.992188 -8.210938 L 3.863281 -8.210938 C 3.992188 -8.796875 4.21875 -9.347656 4.542969 -9.867188 C 5.582031 -11.554688 7.042969 -12.398438 8.925781 -12.398438 C 10.128906 -12.398438 11.199219 -12.011719 12.140625 -11.230469 C 13.113281 -10.417969 13.699219 -9.414062 13.992188 -8.210938 Z M 13.992188 -8.210938 "/></g></g></g><g fill="#000000" fill-opacity="1"><g transform="translate(186.37023, 273.749982)"><g><path d="M 9.769531 -11.328125 L 9.769531 -14.28125 C 9.316406 -14.476562 8.828125 -14.574219 8.34375 -14.574219 C 6.71875 -14.574219 5.550781 -13.664062 4.804688 -11.914062 L 4.707031 -11.328125 L 4.707031 -14.28125 L 2.433594 -14.28125 L 2.433594 0 L 4.707031 0 L 4.707031 -7.140625 C 4.707031 -8.308594 4.964844 -9.347656 5.519531 -10.289062 C 5.777344 -10.777344 6.136719 -11.199219 6.558594 -11.523438 C 6.980469 -11.847656 7.5 -12.042969 8.082031 -12.042969 C 8.667969 -12.042969 9.21875 -11.78125 9.769531 -11.328125 Z M 9.769531 -11.328125 "/></g></g></g><g fill="#005778" fill-opacity="1"><g transform="translate(196.453117, 273.749982)"><g><path d="M 17.886719 -7.5 C 16.976562 -5.550781 14.769531 -4.21875 12.496094 -4.21875 C 8.925781 -4.21875 6.070312 -7.269531 6.070312 -11.035156 C 6.070312 -14.769531 8.925781 -17.851562 12.496094 -17.851562 C 14.738281 -17.851562 16.945312 -16.621094 17.851562 -14.640625 L 23.273438 -14.640625 C 21.78125 -19.152344 17.527344 -22.398438 12.496094 -22.398438 C 6.230469 -22.398438 1.136719 -17.300781 1.136719 -11.035156 C 1.136719 -4.773438 6.230469 0.324219 12.496094 0.324219 C 17.527344 0.324219 21.8125 -2.953125 23.304688 -7.5 Z M 17.886719 -7.5 "/></g></g></g><g fill="#005778" fill-opacity="1"><g transform="translate(220.562864, 273.749982)"><g><path d="M 9.316406 -3.375 C 6.6875 -3.375 5.972656 -5.289062 5.972656 -7.109375 C 5.972656 -8.894531 6.75 -10.808594 9.316406 -10.808594 C 11.847656 -10.808594 12.625 -8.894531 12.625 -7.109375 C 12.625 -5.289062 11.914062 -3.375 9.316406 -3.375 Z M 9.316406 -14.605469 C 4.835938 -14.605469 1.136719 -11.621094 1.136719 -7.140625 C 1.136719 -2.5625 4.738281 0.292969 9.316406 0.292969 C 13.859375 0.292969 17.464844 -2.5625 17.464844 -7.140625 C 17.464844 -11.621094 13.761719 -14.605469 9.316406 -14.605469 Z M 9.316406 -14.605469 "/></g></g></g><g fill="#005778" fill-opacity="1"><g transform="translate(239.15625, 273.749982)"><g><path d="M 9.316406 -3.375 C 6.6875 -3.375 5.972656 -5.289062 5.972656 -7.109375 C 5.972656 -8.894531 6.75 -10.808594 9.316406 -10.808594 C 11.847656 -10.808594 12.625 -8.894531 12.625 -7.109375 C 12.625 -5.289062 11.914062 -3.375 9.316406 -3.375 Z M 9.316406 -14.605469 C 4.835938 -14.605469 1.136719 -11.621094 1.136719 -7.140625 C 1.136719 -2.5625 4.738281 0.292969 9.316406 0.292969 C 13.859375 0.292969 17.464844 -2.5625 17.464844 -7.140625 C 17.464844 -11.621094 13.761719 -14.605469 9.316406 -14.605469 Z M 9.316406 -14.605469 "/></g></g></g><g fill="#005778" fill-opacity="1"><g transform="translate(257.749636, 273.749982)"><g><path d="M 6.816406 0 L 6.816406 -24.34375 L 1.949219 -24.34375 L 1.949219 0 Z M 6.816406 0 "/></g></g></g></svg>