0
SECTION
2
HEADER
9
$INSUNITS
70
4
9
$ACADVER
1
AC1014
9
$HANDSEED
5
FFFF
0
ENDSEC
0
SECTION
2
TABLES
0
TABLE
2
VPORT
5
8
100
AcDbSymbolTable
0
ENDTAB
0
TABLE
2
LTYPE
5
5
100
AcDbSymbolTable
0
LTYPE
5
14
100
AcDbSymbolTableRecord
100
AcDbLinetypeTableRecord
2
BYBLOCK
70
0
0
LTYPE
5
15
100
AcDbSymbolTableRecord
100
AcDbLinetypeTableRecord
2
BYLAYER
70
0
0
ENDTAB
0
TABLE
2
LAYER
5
2
100
AcDbSymbolTable
70
2
0
LAYER
5
50
100
AcDbSymbolTableRecord
100
AcDbLayerTableRecord
2
0
70
0
6
CONTINUOUS
0
ENDTAB
0
TABLE
2
STYLE
5
3
100
AcDbSymbolTable
70
1
0
STYLE
5
11
100
AcDbSymbolTableRecord
100
AcDbTextStyleTableRecord
2
STANDARD
70
0
0
ENDTAB
0
TABLE
2
VIEW
5
6
100
AcDbSymbolTable
70
0
0
ENDTAB
0
TABLE
2
UCS
5
7
100
AcDbSymbolTable
70
0
0
ENDTAB
0
TABLE
2
APPID
5
9
100
AcDbSymbolTable
70
2
0
APPID
5
12
100
AcDbSymbolTableRecord
100
AcDbRegAppTableRecord
2
ACAD
70
0
0
ENDTAB
0
TABLE
2
DIMSTYLE
5
A
100
AcDbSymbolTable
70
1
0
ENDTAB
0
TABLE
2
BLOCK_RECORD
5
1
100
AcDbSymbolTable
70
1
0
BLOCK_RECORD
5
1F
100
AcDbSymbolTableRecord
100
AcDbBlockTableRecord
2
*MODEL_SPACE
0
BLOCK_RECORD
5
1B
100
AcDbSymbolTableRecord
100
AcDbBlockTableRecord
2
*PAPER_SPACE
0
ENDTAB
0
ENDSEC
0
SECTION
2
BLOCKS
0
BLOCK
5
20
100
AcDbEntity
100
AcDbBlockBegin
2
*MODEL_SPACE
0
ENDBLK
5
21
100
AcDbEntity
100
AcDbBlockEnd
0
BLOCK
5
1C
100
AcDbEntity
100
AcDbBlockBegin
2
*PAPER_SPACE
0
ENDBLK
5
1D
100
AcDbEntity
100
AcDbBlockEnd
0
ENDSEC
0
SECTION
2
ENTITIES
0
LINE
5
100
100
AcDbEntity
8
0
100
AcDbLine
10
-41.999999999999993
20
50.000000000000014
30
0
11
-21.999999999999993
21
50.000000000000014
31
0
0
LINE
5
101
100
AcDbEntity
8
0
100
AcDbLine
10
-21.999999999999993
20
50.000000000000014
30
0
11
-21.999999999999989
21
45.000000000000078
31
0
0
LINE
5
102
100
AcDbEntity
8
0
100
AcDbLine
10
-41.999999999999993
20
45.000000000000014
30
0
11
-41.999999999999993
21
50.000000000000014
31
0
0
LINE
5
103
100
AcDbEntity
8
0
100
AcDbLine
10
42.000000000000014
20
45.000000000000014
30
0
11
42.000000000000014
21
50.000000000000043
31
0
0
LINE
5
104
100
AcDbEntity
8
0
100
AcDbLine
10
42.000000000000014
20
50.000000000000043
30
0
11
22.000000000000011
21
50.000000000000043
31
0
0
LINE
5
105
100
AcDbEntity
8
0
100
AcDbLine
10
22.000000000000011
20
50.000000000000043
30
0
11
22.000000000000011
21
45.000000000000043
31
0
0
LINE
5
106
100
AcDbEntity
8
0
100
AcDbLine
10
1.5000000447034922
20
30.000000000000021
30
0
11
1.5000000447034922
21
34.500000000000021
31
0
0
LINE
5
107
100
AcDbEntity
8
0
100
AcDbLine
10
1.5000000447034922
20
34.500000000000021
30
0
11
3.0000000447034925
21
34.500000000000021
31
0
0
LINE
5
108
100
AcDbEntity
8
0
100
AcDbLine
10
3.0000000447034925
20
34.500000000000021
30
0
11
3.0000000447034925
21
37.800000000000026
31
0
0
LINE
5
109
100
AcDbEntity
8
0
100
AcDbLine
10
3.0000000447034925
20
37.800000000000026
30
0
11
1.5000000447034922
21
37.800000000000026
31
0
0
LINE
5
110
100
AcDbEntity
8
0
100
AcDbLine
10
1.5000000447034922
20
37.800000000000026
30
0
11
1.5000000447034922
21
45.000000000000014
31
0
0
LINE
5
111
100
AcDbEntity
8
0
100
AcDbLine
10
1.5000000447034922
20
30.000000000000021
30
0
11
4.4703492574349468e-08
21
30.000000000000021
31
0
0
LINE
5
112
100
AcDbEntity
8
0
100
AcDbLine
10
-1.4999999552965071
20
37.800000000000026
30
0
11
-1.4999999552965066
21
45.000000000000014
31
0
0
LINE
5
113
100
AcDbEntity
8
0
100
AcDbLine
10
-1.4999999552965071
20
34.500000000000021
30
0
11
-2.9999999552965075
21
34.500000000000021
31
0
0
LINE
5
114
100
AcDbEntity
8
0
100
AcDbLine
10
-2.9999999552965075
20
34.500000000000021
30
0
11
-2.9999999552965075
21
37.800000000000026
31
0
0
LINE
5
115
100
AcDbEntity
8
0
100
AcDbLine
10
-1.4999999552965075
20
30.000000000000021
30
0
11
-1.4999999552965071
21
34.500000000000021
31
0
0
LINE
5
116
100
AcDbEntity
8
0
100
AcDbLine
10
-2.9999999552965075
20
37.800000000000026
30
0
11
-1.4999999552965071
21
37.800000000000026
31
0
0
LINE
5
117
100
AcDbEntity
8
0
100
AcDbLine
10
-1.4999999552965075
20
30.000000000000021
30
0
11
4.4703492019237956e-08
21
30.000000000000021
31
0
0
LINE
5
118
100
AcDbEntity
8
0
100
AcDbLine
10
65
20
44.999999999999993
30
0
11
42.000000000000014
21
45.000000000000014
31
0
0
LINE
5
119
100
AcDbEntity
8
0
100
AcDbLine
10
22.000000000000011
20
45.000000000000043
30
0
11
1.5000000447034922
21
45.000000000000014
31
0
0
LINE
5
120
100
AcDbEntity
8
0
100
AcDbLine
10
-1.4999999552965066
20
45.000000000000014
30
0
11
-21.999999999999989
21
45.000000000000078
31
0
0
LINE
5
121
100
AcDbEntity
8
0
100
AcDbLine
10
-41.999999999999993
20
45.000000000000014
30
0
11
-65
21
45.000000000000007
31
0
0
CIRCLE
5
122
100
AcDbEntity
8
0
100
AcDbCircle
10
-40.750000670552254
20
-12.75000025331974
30
0
40
1.5000000000000002
210
0
220
0
230
1
0
CIRCLE
5
123
100
AcDbEntity
8
0
100
AcDbCircle
10
-36.500000670552254
20
-12.75000025331974
30
0
40
1.5000000000000002
210
0
220
0
230
1
0
CIRCLE
5
124
100
AcDbEntity
8
0
100
AcDbCircle
10
-32.250000670552254
20
-12.75000025331974
30
0
40
1.5000000000000002
210
0
220
0
230
1
0
CIRCLE
5
125
100
AcDbEntity
8
0
100
AcDbCircle
10
-28.000000670552254
20
-12.75000025331974
30
0
40
1.5000000000000002
210
0
220
0
230
1
0
CIRCLE
5
126
100
AcDbEntity
8
0
100
AcDbCircle
10
-23.750000670552254
20
-12.75000025331974
30
0
40
1.5000000000000002
210
0
220
0
230
1
0
CIRCLE
5
127
100
AcDbEntity
8
0
100
AcDbCircle
10
-19.50000067055225
20
-12.75000025331974
30
0
40
1.5000000000000002
210
0
220
0
230
1
0
CIRCLE
5
128
100
AcDbEntity
8
0
100
AcDbCircle
10
-15.250000670552248
20
-12.75000025331974
30
0
40
1.5000000000000002
210
0
220
0
230
1
0
CIRCLE
5
129
100
AcDbEntity
8
0
100
AcDbCircle
10
-40.750000670552254
20
-8.5000002533197403
30
0
40
1.5000000000000002
210
0
220
0
230
1
0
CIRCLE
5
130
100
AcDbEntity
8
0
100
AcDbCircle
10
-36.500000670552254
20
-8.5000002533197403
30
0
40
1.5000000000000002
210
0
220
0
230
1
0
CIRCLE
5
131
100
AcDbEntity
8
0
100
AcDbCircle
10
-32.250000670552254
20
-8.5000002533197403
30
0
40
1.5000000000000002
210
0
220
0
230
1
0
CIRCLE
5
132
100
AcDbEntity
8
0
100
AcDbCircle
10
-28.000000670552254
20
-8.5000002533197403
30
0
40
1.5000000000000002
210
0
220
0
230
1
0
CIRCLE
5
133
100
AcDbEntity
8
0
100
AcDbCircle
10
-23.750000670552254
20
-8.5000002533197403
30
0
40
1.5000000000000002
210
0
220
0
230
1
0
CIRCLE
5
134
100
AcDbEntity
8
0
100
AcDbCircle
10
-19.50000067055225
20
-8.5000002533197403
30
0
40
1.5000000000000002
210
0
220
0
230
1
0
CIRCLE
5
135
100
AcDbEntity
8
0
100
AcDbCircle
10
-15.250000670552248
20
-8.5000002533197403
30
0
40
1.5000000000000002
210
0
220
0
230
1
0
CIRCLE
5
136
100
AcDbEntity
8
0
100
AcDbCircle
10
-40.750000670552254
20
-4.2500002533197385
30
0
40
1.5000000000000002
210
0
220
0
230
1
0
CIRCLE
5
137
100
AcDbEntity
8
0
100
AcDbCircle
10
-36.500000670552254
20
-4.2500002533197385
30
0
40
1.5000000000000002
210
0
220
0
230
1
0
CIRCLE
5
138
100
AcDbEntity
8
0
100
AcDbCircle
10
-32.250000670552254
20
-4.2500002533197385
30
0
40
1.5000000000000002
210
0
220
0
230
1
0
CIRCLE
5
139
100
AcDbEntity
8
0
100
AcDbCircle
10
-28.000000670552254
20
-4.2500002533197385
30
0
40
1.5000000000000002
210
0
220
0
230
1
0
CIRCLE
5
140
100
AcDbEntity
8
0
100
AcDbCircle
10
-23.750000670552254
20
-4.2500002533197385
30
0
40
1.5000000000000002
210
0
220
0
230
1
0
CIRCLE
5
141
100
AcDbEntity
8
0
100
AcDbCircle
10
-19.50000067055225
20
-4.2500002533197385
30
0
40
1.5000000000000002
210
0
220
0
230
1
0
CIRCLE
5
142
100
AcDbEntity
8
0
100
AcDbCircle
10
-15.250000670552248
20
-4.2500002533197385
30
0
40
1.5000000000000002
210
0
220
0
230
1
0
CIRCLE
5
143
100
AcDbEntity
8
0
100
AcDbCircle
10
-40.750000670552254
20
-2.5331973851905332e-07
30
0
40
1.5000000000000002
210
0
220
0
230
1
0
CIRCLE
5
144
100
AcDbEntity
8
0
100
AcDbCircle
10
-36.500000670552254
20
-2.5331973851905332e-07
30
0
40
1.5000000000000002
210
0
220
0
230
1
0
CIRCLE
5
145
100
AcDbEntity
8
0
100
AcDbCircle
10
-32.250000670552254
20
-2.5331973851905332e-07
30
0
40
1.5000000000000002
210
0
220
0
230
1
0
CIRCLE
5
146
100
AcDbEntity
8
0
100
AcDbCircle
10
-28.000000670552254
20
-2.5331973851905332e-07
30
0
40
1.5000000000000002
210
0
220
0
230
1
0
CIRCLE
5
147
100
AcDbEntity
8
0
100
AcDbCircle
10
-23.750000670552254
20
-2.5331973851905332e-07
30
0
40
1.5000000000000002
210
0
220
0
230
1
0
CIRCLE
5
148
100
AcDbEntity
8
0
100
AcDbCircle
10
-19.50000067055225
20
-2.5331973851905332e-07
30
0
40
1.5000000000000002
210
0
220
0
230
1
0
CIRCLE
5
149
100
AcDbEntity
8
0
100
AcDbCircle
10
-15.250000670552248
20
-2.5331973851905332e-07
30
0
40
1.5000000000000002
210
0
220
0
230
1
0
CIRCLE
5
150
100
AcDbEntity
8
0
100
AcDbCircle
10
-40.750000670552254
20
4.2499997466802597
30
0
40
1.5000000000000002
210
0
220
0
230
1
0
CIRCLE
5
151
100
AcDbEntity
8
0
100
AcDbCircle
10
-36.500000670552254
20
4.2499997466802597
30
0
40
1.5000000000000002
210
0
220
0
230
1
0
CIRCLE
5
152
100
AcDbEntity
8
0
100
AcDbCircle
10
-32.250000670552254
20
4.2499997466802597
30
0
40
1.5000000000000002
210
0
220
0
230
1
0
CIRCLE
5
153
100
AcDbEntity
8
0
100
AcDbCircle
10
-28.000000670552254
20
4.2499997466802597
30
0
40
1.5000000000000002
210
0
220
0
230
1
0
CIRCLE
5
154
100
AcDbEntity
8
0
100
AcDbCircle
10
-23.750000670552254
20
4.2499997466802597
30
0
40
1.5000000000000002
210
0
220
0
230
1
0
CIRCLE
5
155
100
AcDbEntity
8
0
100
AcDbCircle
10
-19.50000067055225
20
4.2499997466802597
30
0
40
1.5000000000000002
210
0
220
0
230
1
0
CIRCLE
5
156
100
AcDbEntity
8
0
100
AcDbCircle
10
-15.250000670552248
20
4.2499997466802597
30
0
40
1.5000000000000002
210
0
220
0
230
1
0
CIRCLE
5
157
100
AcDbEntity
8
0
100
AcDbCircle
10
-40.750000670552254
20
8.4999997466802633
30
0
40
1.5000000000000002
210
0
220
0
230
1
0
CIRCLE
5
158
100
AcDbEntity
8
0
100
AcDbCircle
10
-36.500000670552254
20
8.4999997466802633
30
0
40
1.5000000000000002
210
0
220
0
230
1
0
CIRCLE
5
159
100
AcDbEntity
8
0
100
AcDbCircle
10
-32.250000670552254
20
8.4999997466802633
30
0
40
1.5000000000000002
210
0
220
0
230
1
0
CIRCLE
5
160
100
AcDbEntity
8
0
100
AcDbCircle
10
-28.000000670552254
20
8.4999997466802633
30
0
40
1.5000000000000002
210
0
220
0
230
1
0
CIRCLE
5
161
100
AcDbEntity
8
0
100
AcDbCircle
10
-23.750000670552254
20
8.4999997466802633
30
0
40
1.5000000000000002
210
0
220
0
230
1
0
CIRCLE
5
162
100
AcDbEntity
8
0
100
AcDbCircle
10
-19.50000067055225
20
8.4999997466802633
30
0
40
1.5000000000000002
210
0
220
0
230
1
0
CIRCLE
5
163
100
AcDbEntity
8
0
100
AcDbCircle
10
-15.250000670552248
20
8.4999997466802633
30
0
40
1.5000000000000002
210
0
220
0
230
1
0
CIRCLE
5
164
100
AcDbEntity
8
0
100
AcDbCircle
10
-40.750000670552254
20
12.749999746680265
30
0
40
1.5000000000000002
210
0
220
0
230
1
0
CIRCLE
5
165
100
AcDbEntity
8
0
100
AcDbCircle
10
-36.500000670552254
20
12.749999746680265
30
0
40
1.5000000000000002
210
0
220
0
230
1
0
CIRCLE
5
166
100
AcDbEntity
8
0
100
AcDbCircle
10
-32.250000670552254
20
12.749999746680265
30
0
40
1.5000000000000002
210
0
220
0
230
1
0
CIRCLE
5
167
100
AcDbEntity
8
0
100
AcDbCircle
10
-28.000000670552254
20
12.749999746680265
30
0
40
1.5000000000000002
210
0
220
0
230
1
0
CIRCLE
5
168
100
AcDbEntity
8
0
100
AcDbCircle
10
-23.750000670552254
20
12.749999746680265
30
0
40
1.5000000000000002
210
0
220
0
230
1
0
CIRCLE
5
169
100
AcDbEntity
8
0
100
AcDbCircle
10
-19.50000067055225
20
12.749999746680265
30
0
40
1.5000000000000002
210
0
220
0
230
1
0
CIRCLE
5
170
100
AcDbEntity
8
0
100
AcDbCircle
10
-15.250000670552248
20
12.749999746680265
30
0
40
1.5000000000000002
210
0
220
0
230
1
0
CIRCLE
5
171
100
AcDbEntity
8
0
100
AcDbCircle
10
45
20
0
30
0
40
5
210
0
220
0
230
1
0
LINE
5
172
100
AcDbEntity
8
0
100
AcDbLine
10
-65
20
35
30
0
11
-70
21
35
31
0
0
LINE
5
173
100
AcDbEntity
8
0
100
AcDbLine
10
-70
20
35
30
0
11
-70
21
14.999999999999998
31
0
0
LINE
5
174
100
AcDbEntity
8
0
100
AcDbLine
10
-70
20
14.999999999999998
30
0
11
-65
21
14.999999999999998
31
0
0
LINE
5
175
100
AcDbEntity
8
0
100
AcDbLine
10
-65
20
-34.999999999999993
30
0
11
-70
21
-34.999999999999993
31
0
0
LINE
5
176
100
AcDbEntity
8
0
100
AcDbLine
10
-70
20
-34.999999999999993
30
0
11
-70
21
-14.999999999999993
31
0
0
LINE
5
177
100
AcDbEntity
8
0
100
AcDbLine
10
-70
20
-14.999999999999993
30
0
11
-65
21
-14.999999999999993
31
0
0
LINE
5
178
100
AcDbEntity
8
0
100
AcDbLine
10
-65
20
45.000000000000007
30
0
11
-65
21
35
31
0
0
LINE
5
179
100
AcDbEntity
8
0
100
AcDbLine
10
-65
20
14.999999999999998
30
0
11
-65
21
-14.999999999999993
31
0
0
LINE
5
180
100
AcDbEntity
8
0
100
AcDbLine
10
-65
20
-34.999999999999993
30
0
11
-65
21
-44.999999999999993
31
0
0
LINE
5
181
100
AcDbEntity
8
0
100
AcDbLine
10
-21.999999999999993
20
-50.000000000000014
30
0
11
-21.999999999999989
21
-45.000000000000078
31
0
0
LINE
5
182
100
AcDbEntity
8
0
100
AcDbLine
10
-41.999999999999993
20
-45.000000000000014
30
0
11
-41.999999999999993
21
-50.000000000000014
31
0
0
LINE
5
183
100
AcDbEntity
8
0
100
AcDbLine
10
42.000000000000014
20
-45.000000000000014
30
0
11
42.000000000000014
21
-50.000000000000043
31
0
0
LINE
5
184
100
AcDbEntity
8
0
100
AcDbLine
10
22.000000000000011
20
-50.000000000000043
30
0
11
22.000000000000011
21
-45.000000000000043
31
0
0
LINE
5
185
100
AcDbEntity
8
0
100
AcDbLine
10
42.000000000000014
20
-50.000000000000043
30
0
11
22.000000000000011
21
-50.000000000000043
31
0
0
LINE
5
186
100
AcDbEntity
8
0
100
AcDbLine
10
-41.999999999999993
20
-50.000000000000014
30
0
11
-21.999999999999993
21
-50.000000000000014
31
0
0
LINE
5
187
100
AcDbEntity
8
0
100
AcDbLine
10
-1.4999999552965071
20
-37.800000000000026
30
0
11
-1.4999999552965071
21
-45.000000000000014
31
0
0
LINE
5
188
100
AcDbEntity
8
0
100
AcDbLine
10
-2.9999999552965075
20
-37.800000000000026
30
0
11
-1.4999999552965071
21
-37.800000000000026
31
0
0
LINE
5
189
100
AcDbEntity
8
0
100
AcDbLine
10
-2.9999999552965075
20
-34.500000000000021
30
0
11
-2.9999999552965075
21
-37.800000000000026
31
0
0
LINE
5
190
100
AcDbEntity
8
0
100
AcDbLine
10
-1.4999999552965071
20
-34.500000000000021
30
0
11
-2.9999999552965075
21
-34.500000000000021
31
0
0
LINE
5
191
100
AcDbEntity
8
0
100
AcDbLine
10
-1.4999999552965071
20
-30.000000000000021
30
0
11
-1.4999999552965071
21
-34.500000000000021
31
0
0
LINE
5
192
100
AcDbEntity
8
0
100
AcDbLine
10
-1.4999999552965071
20
-30.000000000000021
30
0
11
4.4703492019237956e-08
21
-30.000000000000021
31
0
0
LINE
5
193
100
AcDbEntity
8
0
100
AcDbLine
10
1.5000000447034934
20
-30.000000000000021
30
0
11
4.4703492019237956e-08
21
-30.000000000000021
31
0
0
LINE
5
194
100
AcDbEntity
8
0
100
AcDbLine
10
1.5000000447034934
20
-30.000000000000021
30
0
11
1.5000000447034934
21
-34.500000000000021
31
0
0
LINE
5
195
100
AcDbEntity
8
0
100
AcDbLine
10
1.5000000447034934
20
-34.500000000000021
30
0
11
3.0000000447034925
21
-34.500000000000021
31
0
0
LINE
5
196
100
AcDbEntity
8
0
100
AcDbLine
10
3.0000000447034925
20
-34.500000000000021
30
0
11
3.0000000447034925
21
-37.800000000000026
31
0
0
LINE
5
197
100
AcDbEntity
8
0
100
AcDbLine
10
3.0000000447034925
20
-37.800000000000026
30
0
11
1.5000000447034934
21
-37.800000000000026
31
0
0
LINE
5
198
100
AcDbEntity
8
0
100
AcDbLine
10
1.5000000447034934
20
-37.800000000000026
30
0
11
1.5000000447034934
21
-45.000000000000014
31
0
0
LINE
5
199
100
AcDbEntity
8
0
100
AcDbLine
10
65
20
35
30
0
11
70
21
35
31
0
0
LINE
5
200
100
AcDbEntity
8
0
100
AcDbLine
10
70
20
35
30
0
11
70
21
14.999999999999998
31
0
0
LINE
5
201
100
AcDbEntity
8
0
100
AcDbLine
10
70
20
-14.999999999999991
30
0
11
65
21
-14.999999999999991
31
0
0
LINE
5
202
100
AcDbEntity
8
0
100
AcDbLine
10
65
20
-34.999999999999993
30
0
11
70
21
-34.999999999999993
31
0
0
LINE
5
203
100
AcDbEntity
8
0
100
AcDbLine
10
70
20
14.999999999999998
30
0
11
65
21
14.999999999999998
31
0
0
LINE
5
204
100
AcDbEntity
8
0
100
AcDbLine
10
70
20
-34.999999999999993
30
0
11
70
21
-14.999999999999991
31
0
0
LINE
5
205
100
AcDbEntity
8
0
100
AcDbLine
10
-65
20
-44.999999999999993
30
0
11
-41.999999999999993
21
-45.000000000000014
31
0
0
LINE
5
206
100
AcDbEntity
8
0
100
AcDbLine
10
-21.999999999999989
20
-45.000000000000078
30
0
11
-1.4999999552965071
21
-45.000000000000014
31
0
0
LINE
5
207
100
AcDbEntity
8
0
100
AcDbLine
10
1.5000000447034934
20
-45.000000000000014
30
0
11
22.000000000000011
21
-45.000000000000043
31
0
0
LINE
5
208
100
AcDbEntity
8
0
100
AcDbLine
10
42.000000000000014
20
-45.000000000000014
30
0
11
65.000000000000867
21
-44.999999999999993
31
0
0
LINE
5
209
100
AcDbEntity
8
0
100
AcDbLine
10
65
20
44.999999999999993
30
0
11
65
21
35
31
0
0
LINE
5
210
100
AcDbEntity
8
0
100
AcDbLine
10
65
20
14.999999999999998
30
0
11
65
21
-14.999999999999991
31
0
0
LINE
5
211
100
AcDbEntity
8
0
100
AcDbLine
10
65
20
-34.999999999999993
30
0
11
65.000000000000867
21
-44.999999999999993
31
0
0
ENDSEC
0
SECTION
2
OBJECTS
0
DICTIONARY
5
C
100
AcDbDictionary
3
ACAD_GROUP
350
D
3
ACAD_MLINESTYLE
350
17
0
DICTIONARY
5
D
100
AcDbDictionary
0
DICTIONARY
5
1A
330
C
100
AcDbDictionary
0
DICTIONARY
5
17
100
AcDbDictionary
0
ENDSEC
0
EOF
