0
SECTION
2
HEADER
9
$INSUNITS
70
4
9
$ACADVER
1
AC1014
9
$HANDSEED
5
FFFF
0
ENDSEC
0
SECTION
2
TABLES
0
TABLE
2
VPORT
5
8
100
AcDbSymbolTable
0
ENDTAB
0
TABLE
2
LTYPE
5
5
100
AcDbSymbolTable
0
LTYPE
5
14
100
AcDbSymbolTableRecord
100
AcDbLinetypeTableRecord
2
BYBLOCK
70
0
0
LTYPE
5
15
100
AcDbSymbolTableRecord
100
AcDbLinetypeTableRecord
2
BYLAYER
70
0
0
ENDTAB
0
TABLE
2
LAYER
5
2
100
AcDbSymbolTable
70
2
0
LAYER
5
50
100
AcDbSymbolTableRecord
100
AcDbLayerTableRecord
2
0
70
0
6
CONTINUOUS
0
ENDTAB
0
TABLE
2
STYLE
5
3
100
AcDbSymbolTable
70
1
0
STYLE
5
11
100
AcDbSymbolTableRecord
100
AcDbTextStyleTableRecord
2
STANDARD
70
0
0
ENDTAB
0
TABLE
2
VIEW
5
6
100
AcDbSymbolTable
70
0
0
ENDTAB
0
TABLE
2
UCS
5
7
100
AcDbSymbolTable
70
0
0
ENDTAB
0
TABLE
2
APPID
5
9
100
AcDbSymbolTable
70
2
0
APPID
5
12
100
AcDbSymbolTableRecord
100
AcDbRegAppTableRecord
2
ACAD
70
0
0
ENDTAB
0
TABLE
2
DIMSTYLE
5
A
100
AcDbSymbolTable
70
1
0
ENDTAB
0
TABLE
2
BLOCK_RECORD
5
1
100
AcDbSymbolTable
70
1
0
BLOCK_RECORD
5
1F
100
AcDbSymbolTableRecord
100
AcDbBlockTableRecord
2
*MODEL_SPACE
0
BLOCK_RECORD
5
1B
100
AcDbSymbolTableRecord
100
AcDbBlockTableRecord
2
*PAPER_SPACE
0
ENDTAB
0
ENDSEC
0
SECTION
2
BLOCKS
0
BLOCK
5
20
100
AcDbEntity
100
AcDbBlockBegin
2
*MODEL_SPACE
0
ENDBLK
5
21
100
AcDbEntity
100
AcDbBlockEnd
0
BLOCK
5
1C
100
AcDbEntity
100
AcDbBlockBegin
2
*PAPER_SPACE
0
ENDBLK
5
1D
100
AcDbEntity
100
AcDbBlockEnd
0
ENDSEC
0
SECTION
2
ENTITIES
0
LINE
5
100
100
AcDbEntity
8
0
100
AcDbLine
10
-41.999999999999972
20
50
30
0
11
-21.999999999999979
21
50
31
0
0
LINE
5
101
100
AcDbEntity
8
0
100
AcDbLine
10
-21.999999999999979
20
50
30
0
11
-21.999999999999979
21
44.999999999999929
31
0
0
LINE
5
102
100
AcDbEntity
8
0
100
AcDbLine
10
-41.999999999999972
20
45
30
0
11
-41.999999999999972
21
50
31
0
0
LINE
5
103
100
AcDbEntity
8
0
100
AcDbLine
10
42.000000000000028
20
45.000000000000028
30
0
11
42.000000000000028
21
50.000000000000007
31
0
0
LINE
5
104
100
AcDbEntity
8
0
100
AcDbLine
10
42.000000000000028
20
50.000000000000007
30
0
11
22.000000000000025
21
50.000000000000007
31
0
0
LINE
5
105
100
AcDbEntity
8
0
100
AcDbLine
10
22.000000000000025
20
50.000000000000007
30
0
11
22.000000000000025
21
45
31
0
0
LINE
5
106
100
AcDbEntity
8
0
100
AcDbLine
10
1.5000000000000613
20
-34.499999999999964
30
0
11
3.0000000000000604
21
-34.499999999999964
31
0
0
LINE
5
107
100
AcDbEntity
8
0
100
AcDbLine
10
-1.4999999999999369
20
-29.999999999999964
30
0
11
-1.4999999999999369
21
-34.499999999999964
31
0
0
LINE
5
108
100
AcDbEntity
8
0
100
AcDbLine
10
1.5000000000000613
20
-29.999999999999964
30
0
11
6.2172489379008766e-14
21
-29.999999999999964
31
0
0
LINE
5
109
100
AcDbEntity
8
0
100
AcDbLine
10
-1.4999999999999369
20
-37.799999999999969
30
0
11
-1.4999999999999369
21
-44.999999999999957
31
0
0
LINE
5
110
100
AcDbEntity
8
0
100
AcDbLine
10
-2.9999999999999361
20
-34.499999999999964
30
0
11
-2.9999999999999361
21
-37.799999999999969
31
0
0
LINE
5
111
100
AcDbEntity
8
0
100
AcDbLine
10
-2.9999999999999361
20
-37.799999999999969
30
0
11
-1.4999999999999369
21
-37.799999999999969
31
0
0
LINE
5
112
100
AcDbEntity
8
0
100
AcDbLine
10
1.5000000000000613
20
-37.799999999999969
30
0
11
1.5000000000000613
21
-44.999999999999957
31
0
0
LINE
5
113
100
AcDbEntity
8
0
100
AcDbLine
10
3.0000000000000604
20
-37.799999999999969
30
0
11
1.5000000000000613
21
-37.799999999999969
31
0
0
LINE
5
114
100
AcDbEntity
8
0
100
AcDbLine
10
-1.4999999999999369
20
-29.999999999999964
30
0
11
5.9952043329758453e-14
21
-29.999999999999964
31
0
0
LINE
5
115
100
AcDbEntity
8
0
100
AcDbLine
10
1.5000000000000613
20
-29.999999999999964
30
0
11
1.5000000000000613
21
-34.499999999999964
31
0
0
LINE
5
116
100
AcDbEntity
8
0
100
AcDbLine
10
3.0000000000000604
20
-34.499999999999964
30
0
11
3.0000000000000604
21
-37.799999999999969
31
0
0
LINE
5
117
100
AcDbEntity
8
0
100
AcDbLine
10
-1.4999999999999369
20
-34.499999999999964
30
0
11
-2.9999999999999361
21
-34.499999999999964
31
0
0
LWPOLYLINE
5
118
100
AcDbEntity
8
0
100
AcDbPolyline
90
4
70
1
43
0.0
10
-35
20
-20
10
15
20
-20
10
15
20
20
10
-35
20
20
0
LINE
5
119
100
AcDbEntity
8
0
100
AcDbLine
10
-41.999999999999972
20
45
30
0
11
-64.999999999999972
21
45.000000000000007
31
0
0
LINE
5
120
100
AcDbEntity
8
0
100
AcDbLine
10
65.000000000000028
20
45.000000000000036
30
0
11
42.000000000000028
21
45.000000000000028
31
0
0
LINE
5
121
100
AcDbEntity
8
0
100
AcDbLine
10
-65.000000000000028
20
35.000000000000043
30
0
11
-70.000000000000028
21
35.000000000000043
31
0
0
LINE
5
122
100
AcDbEntity
8
0
100
AcDbLine
10
-70.000000000000028
20
35.000000000000043
30
0
11
-70.000000000000028
21
15.000000000000043
31
0
0
LINE
5
123
100
AcDbEntity
8
0
100
AcDbLine
10
-70.000000000000028
20
15.000000000000043
30
0
11
-65.000000000000028
21
15.000000000000043
31
0
0
LINE
5
124
100
AcDbEntity
8
0
100
AcDbLine
10
-64.999999999999972
20
-34.999999999999972
30
0
11
-69.999999999999972
21
-34.999999999999972
31
0
0
LINE
5
125
100
AcDbEntity
8
0
100
AcDbLine
10
-69.999999999999972
20
-34.999999999999972
30
0
11
-69.999999999999972
21
-14.999999999999975
31
0
0
LINE
5
126
100
AcDbEntity
8
0
100
AcDbLine
10
-69.999999999999972
20
-14.999999999999975
30
0
11
-64.999999999999972
21
-14.999999999999975
31
0
0
LINE
5
127
100
AcDbEntity
8
0
100
AcDbLine
10
-64.999999999999972
20
45.000000000000007
30
0
11
-65.000000000000028
21
35.000000000000043
31
0
0
LINE
5
128
100
AcDbEntity
8
0
100
AcDbLine
10
-65.000000000000028
20
15.000000000000043
30
0
11
-64.999999999999972
21
-14.999999999999975
31
0
0
LINE
5
129
100
AcDbEntity
8
0
100
AcDbLine
10
-64.999999999999972
20
-34.999999999999972
30
0
11
-64.999999999999972
21
-44.999999999999993
31
0
0
LINE
5
130
100
AcDbEntity
8
0
100
AcDbLine
10
-41.999999999999972
20
-45
30
0
11
-41.999999999999972
21
-50
31
0
0
LINE
5
131
100
AcDbEntity
8
0
100
AcDbLine
10
-41.999999999999972
20
-50
30
0
11
-21.999999999999979
21
-50
31
0
0
LINE
5
132
100
AcDbEntity
8
0
100
AcDbLine
10
42.000000000000028
20
-50.000000000000007
30
0
11
22.000000000000025
21
-50.000000000000007
31
0
0
LINE
5
133
100
AcDbEntity
8
0
100
AcDbLine
10
22.000000000000025
20
-50.000000000000007
30
0
11
22.000000000000025
21
-45
31
0
0
LINE
5
134
100
AcDbEntity
8
0
100
AcDbLine
10
-21.999999999999979
20
-50
30
0
11
-21.999999999999979
21
-44.999999999999929
31
0
0
LINE
5
135
100
AcDbEntity
8
0
100
AcDbLine
10
42.000000000000028
20
-45.000000000000028
30
0
11
42.000000000000028
21
-50.000000000000007
31
0
0
LINE
5
136
100
AcDbEntity
8
0
100
AcDbLine
10
1.5000000000000613
20
34.499999999999964
30
0
11
3.0000000000000604
21
34.499999999999964
31
0
0
LINE
5
137
100
AcDbEntity
8
0
100
AcDbLine
10
1.5000000000000613
20
29.999999999999964
30
0
11
1.5000000000000613
21
34.499999999999964
31
0
0
LINE
5
138
100
AcDbEntity
8
0
100
AcDbLine
10
-2.9999999999999361
20
34.499999999999964
30
0
11
-2.9999999999999361
21
37.799999999999969
31
0
0
LINE
5
139
100
AcDbEntity
8
0
100
AcDbLine
10
1.5000000000000613
20
29.999999999999964
30
0
11
6.2172489379008766e-14
21
29.999999999999964
31
0
0
LINE
5
140
100
AcDbEntity
8
0
100
AcDbLine
10
-2.9999999999999361
20
37.799999999999969
30
0
11
-1.4999999999999369
21
37.799999999999969
31
0
0
LINE
5
141
100
AcDbEntity
8
0
100
AcDbLine
10
3.0000000000000604
20
37.799999999999969
30
0
11
1.5000000000000613
21
37.799999999999969
31
0
0
LINE
5
142
100
AcDbEntity
8
0
100
AcDbLine
10
3.0000000000000604
20
34.499999999999964
30
0
11
3.0000000000000604
21
37.799999999999969
31
0
0
LINE
5
143
100
AcDbEntity
8
0
100
AcDbLine
10
1.5000000000000613
20
37.799999999999969
30
0
11
1.5000000000000613
21
44.999999999999957
31
0
0
LINE
5
144
100
AcDbEntity
8
0
100
AcDbLine
10
-1.4999999999999369
20
34.499999999999964
30
0
11
-2.9999999999999361
21
34.499999999999964
31
0
0
LINE
5
145
100
AcDbEntity
8
0
100
AcDbLine
10
-1.4999999999999369
20
29.999999999999964
30
0
11
-1.4999999999999369
21
34.499999999999964
31
0
0
LINE
5
146
100
AcDbEntity
8
0
100
AcDbLine
10
-1.4999999999999369
20
37.799999999999969
30
0
11
-1.4999999999999369
21
44.999999999999957
31
0
0
LINE
5
147
100
AcDbEntity
8
0
100
AcDbLine
10
-1.4999999999999369
20
29.999999999999964
30
0
11
5.9952043329758453e-14
21
29.999999999999964
31
0
0
LINE
5
148
100
AcDbEntity
8
0
100
AcDbLine
10
64.999999999999972
20
-34.999999999999972
30
0
11
69.999999999999972
21
-34.999999999999972
31
0
0
LINE
5
149
100
AcDbEntity
8
0
100
AcDbLine
10
70.000000000000028
20
15.000000000000043
30
0
11
65.000000000000028
21
15.000000000000043
31
0
0
LINE
5
150
100
AcDbEntity
8
0
100
AcDbLine
10
70.000000000000028
20
35.000000000000043
30
0
11
70.000000000000028
21
15.000000000000043
31
0
0
LINE
5
151
100
AcDbEntity
8
0
100
AcDbLine
10
69.999999999999972
20
-34.999999999999972
30
0
11
69.999999999999972
21
-14.999999999999973
31
0
0
LINE
5
152
100
AcDbEntity
8
0
100
AcDbLine
10
65.000000000000028
20
35.000000000000043
30
0
11
70.000000000000028
21
35.000000000000043
31
0
0
LINE
5
153
100
AcDbEntity
8
0
100
AcDbLine
10
69.999999999999972
20
-14.999999999999973
30
0
11
64.999999999999972
21
-14.999999999999973
31
0
0
LINE
5
154
100
AcDbEntity
8
0
100
AcDbLine
10
-21.999999999999979
20
44.999999999999929
30
0
11
-1.4999999999999369
21
44.999999999999957
31
0
0
LINE
5
155
100
AcDbEntity
8
0
100
AcDbLine
10
1.5000000000000613
20
44.999999999999957
30
0
11
22.000000000000025
21
45
31
0
0
LINE
5
156
100
AcDbEntity
8
0
100
AcDbLine
10
-64.999999999999972
20
-44.999999999999993
30
0
11
-41.999999999999972
21
-45
31
0
0
LINE
5
157
100
AcDbEntity
8
0
100
AcDbLine
10
-21.999999999999979
20
-44.999999999999929
30
0
11
-1.4999999999999369
21
-44.999999999999957
31
0
0
LINE
5
158
100
AcDbEntity
8
0
100
AcDbLine
10
1.5000000000000613
20
-44.999999999999957
30
0
11
22.000000000000025
21
-45
31
0
0
LINE
5
159
100
AcDbEntity
8
0
100
AcDbLine
10
42.000000000000028
20
-45.000000000000028
30
0
11
65.00000000000027
21
-44.999999999999993
31
0
0
LINE
5
160
100
AcDbEntity
8
0
100
AcDbLine
10
64.999999999999972
20
-34.999999999999972
30
0
11
65.00000000000027
21
-44.999999999999993
31
0
0
LINE
5
161
100
AcDbEntity
8
0
100
AcDbLine
10
65.000000000000028
20
45.000000000000036
30
0
11
65.000000000000028
21
35.000000000000043
31
0
0
LINE
5
162
100
AcDbEntity
8
0
100
AcDbLine
10
65.000000000000028
20
15.000000000000043
30
0
11
64.999999999999972
21
-14.999999999999973
31
0
0
ENDSEC
0
SECTION
2
OBJECTS
0
DICTIONARY
5
C
100
AcDbDictionary
3
ACAD_GROUP
350
D
3
ACAD_MLINESTYLE
350
17
0
DICTIONARY
5
D
100
AcDbDictionary
0
DICTIONARY
5
1A
330
C
100
AcDbDictionary
0
DICTIONARY
5
17
100
AcDbDictionary
0
ENDSEC
0
EOF
